<svg xmlns="http://www.w3.org/2000/svg" width="16" height="9" viewBox="0 0 16 9"><g><g opacity="1"><path fill="#fff" d="M13.77 5.722c.531.516 1.091 1 1.567 1.567.21.252.41.512.562.805.216.415.02.873-.355.897h-2.33c-.602.049-1.081-.192-1.485-.6-.322-.327-.621-.675-.932-1.012a2.204 2.204 0 0 0-.419-.37c-.318-.206-.594-.144-.776.186-.185.336-.227.708-.246 1.082-.025.545-.19.689-.742.713-1.178.056-2.296-.121-3.335-.712-.916-.521-1.626-1.256-2.245-2.089C1.831 4.569.91 2.787.081.956-.106.543.03.322.488.314 1.25.299 2.01.3 2.771.313c.309.004.513.18.633.47a14.045 14.045 0 0 0 1.546 2.85c.169.236.34.472.585.638.27.184.476.123.603-.176.08-.19.116-.394.134-.598.06-.699.068-1.397-.037-2.094C6.17.968 5.923.686 5.487.604c-.223-.042-.19-.124-.082-.25C5.592.135 5.768 0 6.12 0h2.634c.415.081.507.266.564.681L9.32 3.59c-.005.16.08.637.372.743.233.076.386-.11.526-.256.63-.666 1.08-1.452 1.483-2.266.178-.358.332-.73.48-1.102.11-.275.284-.411.596-.405l2.535.002c.076 0 .152.001.224.013.428.073.545.256.413.67-.208.65-.613 1.193-1.008 1.738-.423.581-.875 1.143-1.294 1.728-.386.534-.355.804.123 1.267z"/></g></g></svg>
