<svg xmlns="http://www.w3.org/2000/svg" width="42" height="15" viewBox="0 0 42 15"><g><g opacity="1"><path fill="#fff" d="M.808.82a2.749 2.749 0 0 1 3.943 0l7.144 7.287 6.87-7.009a2.751 2.751 0 0 1 2.229-1.112c.72-.004 1.44.273 1.988.833.087.09.167.182.24.28l6.87 7.007L37.238.82a2.749 2.749 0 0 1 3.943 0 2.884 2.884 0 0 1 0 4.023l-8.859 9.039c-.073.096-.153.19-.24.278-.549.56-1.269.837-1.988.833a2.752 2.752 0 0 1-2.228-1.111l-6.871-7.01-6.871 7.01c-.073.097-.153.19-.24.278-.548.56-1.269.837-1.988.833a2.752 2.752 0 0 1-2.228-1.112L.807 4.842a2.884 2.884 0 0 1 0-4.023z"/></g></g></svg>
