<svg xmlns="http://www.w3.org/2000/svg" width="8" height="16" viewBox="0 0 8 16"><g><g opacity="1"><path fill="#fff" d="M7.698.003L5.78-.001C3.624 0 2.23 1.545 2.23 3.937v1.815H.301C.136 5.752 0 5.9 0 6.08v2.63c0 .181.135.327.302.327H2.23v6.638c0 .18.135.326.302.326H5.05c.166 0 .301-.146.301-.326V9.036h2.256c.167 0 .302-.146.302-.326V6.08a.341.341 0 0 0-.088-.232.292.292 0 0 0-.213-.096H5.35V4.214c0-.74.164-1.116 1.054-1.116h1.293c.167 0 .302-.146.302-.326V.329c0-.18-.135-.326-.302-.326z"/></g></g></svg>
