<svg xmlns="http://www.w3.org/2000/svg" width="16" height="13" viewBox="0 0 16 13"><g><g opacity="1"><path fill="#fff" d="M15.559.24a6.598 6.598 0 0 1-2.086.797A3.283 3.283 0 0 0 7.88 4.03 9.319 9.319 0 0 1 1.114.6a3.26 3.26 0 0 0-.443 1.65A3.28 3.28 0 0 0 2.13 4.98 3.278 3.278 0 0 1 .643 4.57v.04a3.287 3.287 0 0 0 2.632 3.22 3.324 3.324 0 0 1-1.483.055 3.288 3.288 0 0 0 3.066 2.28A6.586 6.586 0 0 1 .783 11.57c-.265 0-.526-.016-.783-.045A9.297 9.297 0 0 0 5.03 13c6.038 0 9.34-5.002 9.34-9.34l-.011-.425A6.607 6.607 0 0 0 16 1.538c-.589.26-1.22.438-1.885.517A3.301 3.301 0 0 0 15.56.24z"/></g></g></svg>
