<svg xmlns="http://www.w3.org/2000/svg" width="16" height="11" viewBox="0 0 16 11"><g><g opacity="1"><path fill="#ffc925" d="M16 4.147v2.706c0 1.715-.277 2.707-.926 3.313-.634.592-1.612.834-3.378.834H4.304C.665 11 0 9.603 0 6.853V4.147C0 2.727 0 1.7.56 1.005 1.137.29 2.22 0 4.305 0h7.392c2.036 0 3.103.273 3.68.944.58.674.624 1.705.624 3.203zm-5.451 1.279a.503.503 0 0 0-.278-.447L6.914 3.276a.528.528 0 0 0-.506.017.502.502 0 0 0-.248.43V7.14c0 .177.094.34.249.432a.525.525 0 0 0 .506.015l3.357-1.714a.502.502 0 0 0 .277-.447z"/></g></g></svg>
